<svg xmlns="http://www.w3.org/2000/svg" viewBox="0 0 64 64"><path d="M37.23,27.36a7.45,7.45,0,0,0-3.95-4.2c-3.45-1.32-8.25,1.19-8.47,1.3A31.23,31.23,0,0,1,18.88,27c-.83.1-2.11-1.74-2.25-2.08a.55.55,0,0,0-.29-.29.58.58,0,0,0-.41,0,.55.55,0,0,0-.29.29.58.58,0,0,0,0,.41c.21.57,1.34,3.44,3.42,3.16,1.27-.16,6.19-2.57,6.48-2.75.05,0,4.45-2.34,7.19-1.21a6.17,6.17,0,0,1,3.09,3.29c2.27,6.55-1.33,13.56-2.48,15.56a14.5,14.5,0,0,1-3.1,4,4.65,4.65,0,0,1-.46.32,2.5,2.5,0,0,1-.58,0,1.28,1.28,0,0,1-1-.64A43.29,43.29,0,0,1,26.17,42a.61.61,0,0,0-.74-.4.6.6,0,0,0-.4.73l0,.09a29.47,29.47,0,0,0,1.89,5.47,2.85,2.85,0,0,0,2.52,1.39,3.53,3.53,0,0,0,.77-.09c.31-.11,2-.84,4.4-5C36.22,41.43,39.65,34.32,37.23,27.36Z"/></svg>