<svg xmlns="http://www.w3.org/2000/svg" viewBox="0 0 64 64"><path d="M40.94,48.69a.64.64,0,0,0-.42-.25.63.63,0,0,0-.46.13c-1.23.94-9.82,1.28-13.82-.42-2.67-1.13-5.78-3.22-5.39-6.7.32-2.81,2.34-4.27,6.76-4.89,4-.55,8.79,1.86,9.68,2.32a1,1,0,0,0,.33.16.75.75,0,0,0,.89-.44.78.78,0,0,0-.33-.94l-.1,0c-.2-.17-1.25-1.26-2.9-6.47-2-6.4-1.28-16.22-1.28-16.32a.74.74,0,0,0,0-.26c-.58-2.05-4-2.74-4.63-2.85a.61.61,0,0,0-.47.09.62.62,0,0,0-.27.41A.63.63,0,0,0,29,13c.69.13,3,.94,3.39,1.91-.1,1.36-.66,10.41,1.35,16.74a38.43,38.43,0,0,0,1.85,4.85,17.08,17.08,0,0,0-8.19-1.38c-5.17.72-7.65,2.63-8,6.21s1.79,6.32,6.29,8.24A24.92,24.92,0,0,0,34.48,51c2.65,0,5.47-.75,6.34-1.42a.61.61,0,0,0,.12-.88Z"/></svg>