<svg xmlns="http://www.w3.org/2000/svg" viewBox="0 0 64 64"><path d="M42.59,41.29c-.4-3.58-2.89-5.49-8.05-6.21a17.06,17.06,0,0,0-8.19,1.38,38.43,38.43,0,0,0,1.85-4.85c2-6.33,1.45-15.38,1.35-16.74.41-1,2.69-1.78,3.39-1.91a.64.64,0,0,0,.5-.74.63.63,0,0,0-.75-.5c-.67.11-4,.8-4.62,2.84a1.24,1.24,0,0,0,0,.27c0,.1.77,9.92-1.27,16.32-1.66,5.21-2.71,6.3-2.84,6.42l-.16.09a.76.76,0,0,0-.33.94.74.74,0,0,0,.88.44.87.87,0,0,0,.31-.14c.91-.48,5.7-2.89,9.71-2.34,4.42.62,6.44,2.08,6.76,4.89.39,3.48-2.72,5.57-5.39,6.7-4,1.71-12.59,1.36-13.82.42a.63.63,0,0,0-.46-.13.64.64,0,0,0-.42.25.59.59,0,0,0-.13.46.62.62,0,0,0,.24.42c.88.67,3.7,1.42,6.34,1.42a24.84,24.84,0,0,0,8.83-1.46C40.8,47.61,43,44.76,42.59,41.29Z"/></svg>