<svg xmlns="http://www.w3.org/2000/svg" viewBox="0 0 60 450"><defs><style>.a{stroke:#000;stroke-linecap:round;stroke-linejoin:round;stroke-width:0.93px;}</style></defs><path class="a" d="M25.8,336a.52.52,0,0,1-.38-.17l-.56-.56a3.91,3.91,0,0,1-1.21-2.09,74.05,74.05,0,0,1-2.4-13.6,21.12,21.12,0,0,1,.66-8.05c-.67-1.64-3.77-3.3-4.51-3.59a.35.35,0,0,1-.2-.46.35.35,0,0,1,.46-.21c.13.05,4.47,1.58,5.29,4.1a.5.5,0,0,1,0,.34,19.55,19.55,0,0,0-.67,7.78,72.65,72.65,0,0,0,2.36,13.37,3,3,0,0,0,.95,1.67l.6.6a.52.52,0,0,1,0,.73A.54.54,0,0,1,25.8,336Z"/><path class="a" d="M30.46,356.48a64.84,64.84,0,0,1-8.6-.58c-3.32-.45-5.76-2-7-4.47-1.47-2.82-1.24-6.52.63-10.15,3-5.86,10.2-10.33,14.5-13l1.18-.74a58.27,58.27,0,0,1,9-4.4c-.56-2.9-4.06-5.65-4.09-5.67a.36.36,0,0,1,.42-.59c.13.09,4.41,3,4.75,6.54a.52.52,0,0,1-.33.54,58.28,58.28,0,0,0-9.16,4.46l-1.19.73c-4.21,2.61-11.25,7-14.13,12.59-1.71,3.33-1.94,6.69-.63,9.2,1.13,2.17,3.3,3.52,6.28,3.93,7,.95,16.35,1,21.64-1.79a.51.51,0,0,1,.69.22.52.52,0,0,1-.22.7C40.64,355.82,35.54,356.48,30.46,356.48Z"/><path class="a" d="M48.29,318.9a.51.51,0,0,1-.49-.36c-1.07-3.23-8.07-8-8.14-8.09a.52.52,0,0,1-.14-.72.52.52,0,0,1,.72-.13c.3.2,7.37,5.06,8.54,8.62a.52.52,0,0,1-.33.65Z"/><path class="a" d="M53.38,316a.52.52,0,0,1-.49-.36c-1.06-3.23-8.07-8-8.14-8.09a.52.52,0,0,1-.13-.72.5.5,0,0,1,.71-.13c.3.2,7.37,5.06,8.54,8.62a.52.52,0,0,1-.33.65A.41.41,0,0,1,53.38,316Z"/><path class="a" d="M18.79,232.92a2.51,2.51,0,0,1-.44,0c-2.22-.34-3.56-4.78-3.67-5.12a.36.36,0,0,1,.69-.22c.36,1.1,1.93,4.14,3.13,4.33,1.39.2,12.23-1.49,19.19-2.69h0a8,8,0,0,0,3-1.84.52.52,0,0,1,.7.77,8.68,8.68,0,0,1-3.52,2.08C36.17,230.5,22,232.92,18.79,232.92Z"/><path class="a" d="M18.4,409.07l-.44,0c-2.22-.34-3.56-4.79-3.67-5.13a.36.36,0,0,1,.24-.45.35.35,0,0,1,.45.23c.36,1.1,1.93,4.14,3.14,4.33,1.38.21,12.23-1.49,19.18-2.69h0a8,8,0,0,0,3-1.83.52.52,0,1,1,.7.76,8.54,8.54,0,0,1-3.52,2.08C35.78,406.65,21.61,409.07,18.4,409.07Z"/><path class="a" d="M19.73,417.54a2.51,2.51,0,0,1-.44,0c-2.22-.34-3.56-4.79-3.67-5.12a.36.36,0,1,1,.69-.22c.36,1.1,1.93,4.14,3.13,4.33,1.39.2,12.23-1.49,19.19-2.69h0a8,8,0,0,0,3-1.84.52.52,0,0,1,.73,0,.51.51,0,0,1,0,.73,8.62,8.62,0,0,1-3.51,2.08C37.11,415.11,22.94,417.54,19.73,417.54Z"/><path class="a" d="M23.8,269.76c-3.46,0-7-1-8-1.76a.36.36,0,0,1,.43-.57c1.88,1.44,13.31,1.74,18.54-.49,3.64-1.55,7.86-4.41,7.32-9.24-.44-3.92-3.2-6-9.24-6.8-5.41-.75-11.86,2.52-13,3.11a.75.75,0,0,1-.3.14.51.51,0,0,1-.6-.3.53.53,0,0,1,.22-.65l.21-.11c.34-.29,1.75-1.82,3.93-8.66C26,236,25,223,25,222.91a.59.59,0,0,1,0-.19c.74-2.6,5.56-3.37,5.7-3.39a.36.36,0,0,1,.42.28.35.35,0,0,1-.29.42c-.81.16-4.27,1.29-4.81,2.89.1,1.32.92,13.46-1.74,21.82a39.52,39.52,0,0,1-3,7.41C24,251,28.73,249.28,33,249.88c6.5.91,9.62,3.28,10.12,7.71s-2.27,7.88-7.95,10.3A32.32,32.32,0,0,1,23.8,269.76Z"/><path class="a" d="M32.78,445.92c3.46,0,7-1,8-1.77a.35.35,0,0,0,.07-.5.37.37,0,0,0-.51-.07c-1.88,1.45-13.3,1.74-18.53-.48-3.64-1.55-7.86-4.41-7.32-9.24.44-3.93,3.2-6,9.23-6.81,5.42-.75,11.87,2.52,13,3.11a1,1,0,0,0,.3.15.52.52,0,0,0,.38-.95l-.21-.12c-.34-.29-1.75-1.82-3.93-8.66-2.7-8.47-1.7-21.39-1.69-21.52a.37.37,0,0,0,0-.18c-.73-2.61-5.55-3.38-5.69-3.4a.36.36,0,0,0-.42.29.36.36,0,0,0,.29.42c.81.15,4.26,1.28,4.81,2.88-.1,1.32-.92,13.46,1.74,21.82a38.83,38.83,0,0,0,3,7.41c-2.67-1.18-7.39-2.86-11.66-2.27-6.5.91-9.62,3.29-10.12,7.71s2.27,7.89,8,10.31A32.24,32.24,0,0,0,32.78,445.92Z"/><path class="a" d="M26.44,180.83a3.23,3.23,0,0,1-2.89-1.59c-1.08-1.83-2.41-7-2.45-7.16a.31.31,0,0,1,.21-.39.32.32,0,0,1,.38.21,57.57,57.57,0,0,0,2.75,6.82A2.1,2.1,0,0,0,26,179.77a2.79,2.79,0,0,0,1,0,4.17,4.17,0,0,0,.75-.5,19,19,0,0,0,4.16-5.36c2.84-4.89,5.88-13.23,3.28-20.73a8.51,8.51,0,0,0-4.31-4.58c-3.79-1.56-9.73,1.58-9.79,1.61-.53.32-6.79,3.35-8.31,3.54-2.6.34-4-3.78-4-3.85a.24.24,0,0,1,.13-.3.24.24,0,0,1,.31.13c.16.4,1.95,3.16,3.42,3a41.32,41.32,0,0,0,7.94-3.42c.28-.15,6.4-3.3,10.67-1.67a9.22,9.22,0,0,1,4.9,5.21c2.73,7.87-.34,16.38-3.36,21.58-3.15,5.41-5.28,6.25-5.51,6.33A3.5,3.5,0,0,1,26.44,180.83Z"/><path class="a" d="M9.32,180.76a.52.52,0,0,1-.19-1c1.66-.65,3.48-4.21,4-5.53,4.34-14,11.88-35.49,11.88-36.85,0-1-2.67-2.78-3.84-3.11a.31.31,0,0,1-.21-.37.3.3,0,0,1,.37-.21c.54.16,4.71,1.5,4.71,3.69,0,1.94-10.83,33.6-11.94,37.2-.11.26-2.23,5.2-4.63,6.14A.65.65,0,0,1,9.32,180.76Z"/><path class="a" d="M52.05,157.63h0l-9-.43a.31.31,0,0,1-.29-.31.3.3,0,0,1,.3-.29h0l8.47,0C50.41,147.3,39,144.17,39,144.15a.28.28,0,1,1,.13-.54c.07,0,12.77,3,13.48,13.47a.51.51,0,0,1-.51.55Z"/><path class="a" d="M29.3,77c-3.07-8.32-12.24-15-12.24-15S29.54,72.68,29.54,82.93c0,0,.1.54.46.54s.46-.54.46-.54C30.46,72.68,42.81,62.1,42.94,62S33.77,68.63,30.7,77"/><rect class="a" x="29.54" y="4.08" width="0.93" height="72.83"/></svg>