<svg xmlns="http://www.w3.org/2000/svg" viewBox="0 0 450 60"><defs><style>.a{stroke:#000;stroke-linecap:round;stroke-linejoin:round;stroke-width:0.93px;}</style></defs><path class="a" d="M81,31.37c-8.32,3.07-15,12.24-15,12.24S76.71,31.14,87,31.14c0,0,.54-.11.54-.47s-.54-.46-.54-.46C76.71,30.21,66.13,17.86,66,17.73S72.66,26.9,81,30"/><rect class="a" x="8.11" y="30.21" width="72.83" height="0.93"/><path class="a" d="M335.37,34.75a.51.51,0,0,1-.37-.17l-.56-.56a3.91,3.91,0,0,1-1.21-2.09,74.91,74.91,0,0,1-2.41-13.61,21.21,21.21,0,0,1,.67-8c-.67-1.64-3.77-3.3-4.51-3.59a.35.35,0,0,1-.21-.46.37.37,0,0,1,.47-.21c.12.05,4.47,1.58,5.29,4.1a.56.56,0,0,1,0,.34,19.55,19.55,0,0,0-.67,7.78,72.65,72.65,0,0,0,2.36,13.37,3,3,0,0,0,.94,1.67,8.38,8.38,0,0,1,.6.6.51.51,0,0,1,0,.73A.5.5,0,0,1,335.37,34.75Z"/><path class="a" d="M340,55.25a64.69,64.69,0,0,1-8.59-.58c-3.33-.46-5.76-2-7.05-4.47-1.47-2.82-1.24-6.52.62-10.16,3-5.85,10.21-10.32,14.51-13l1.18-.74a58.27,58.27,0,0,1,9-4.4c-.56-2.9-4.06-5.66-4.09-5.67a.37.37,0,0,1-.08-.51.36.36,0,0,1,.5-.08c.13.09,4.41,3,4.75,6.54a.52.52,0,0,1-.34.54,58.28,58.28,0,0,0-9.16,4.46l-1.18.73c-4.21,2.61-11.25,7-14.13,12.58-1.71,3.34-1.94,6.7-.63,9.21,1.13,2.16,3.3,3.52,6.28,3.92,7,1,16.34,1,21.63-1.78a.52.52,0,0,1,.7.22.51.51,0,0,1-.22.69C350.22,54.59,345.12,55.25,340,55.25Z"/><path class="a" d="M357.87,17.67a.51.51,0,0,1-.49-.36c-1.07-3.23-8.07-8-8.15-8.09a.52.52,0,0,1,.59-.85c.3.2,7.36,5.06,8.53,8.62a.51.51,0,0,1-.32.65Z"/><path class="a" d="M363,14.79a.51.51,0,0,1-.49-.36c-1.06-3.23-8.07-8-8.14-8.09a.51.51,0,0,1-.13-.72.5.5,0,0,1,.71-.13c.3.2,7.37,5.06,8.54,8.62a.52.52,0,0,1-.33.65A.45.45,0,0,1,363,14.79Z"/><path class="a" d="M251.68,18.35a2.39,2.39,0,0,1-.43,0c-2.22-.34-3.56-4.79-3.67-5.12a.37.37,0,0,1,.23-.46.37.37,0,0,1,.46.23c.36,1.11,1.93,4.15,3.13,4.33,1.39.21,12.23-1.49,19.19-2.68h0a8,8,0,0,0,3-1.84.52.52,0,0,1,.73,0,.51.51,0,0,1,0,.72,8.79,8.79,0,0,1-3.51,2.09C269.07,15.92,254.9,18.35,251.68,18.35Z"/><path class="a" d="M407.77,18.35a2.39,2.39,0,0,1-.43,0c-2.22-.34-3.56-4.79-3.67-5.12a.37.37,0,0,1,.23-.46.38.38,0,0,1,.46.23c.36,1.11,1.93,4.15,3.13,4.33,1.39.21,12.23-1.49,19.18-2.68h0a7.94,7.94,0,0,0,3-1.84.52.52,0,0,1,.73,0,.51.51,0,0,1,0,.72,8.86,8.86,0,0,1-3.51,2.09C425.16,15.92,411,18.35,407.77,18.35Z"/><path class="a" d="M409.1,26.81a2.76,2.76,0,0,1-.44,0c-2.22-.34-3.55-4.79-3.66-5.12a.37.37,0,0,1,.23-.46.35.35,0,0,1,.45.23c.36,1.1,1.93,4.15,3.14,4.33,1.38.21,12.23-1.49,19.18-2.69h0a7.82,7.82,0,0,0,3-1.83.51.51,0,0,1,.69.76,8.54,8.54,0,0,1-3.52,2.08C426.49,24.39,412.31,26.81,409.1,26.81Z"/><path class="a" d="M256.7,55.19c-3.47,0-7-1-8-1.76a.37.37,0,0,1-.06-.51.36.36,0,0,1,.5-.06c1.88,1.44,13.31,1.74,18.53-.49,3.65-1.55,7.87-4.41,7.33-9.24-.44-3.93-3.2-6-9.24-6.8-5.41-.75-11.86,2.51-13,3.11a1,1,0,0,1-.29.14.52.52,0,0,1-.38-.95l.21-.11c.34-.29,1.75-1.82,3.93-8.67,2.69-8.46,1.69-21.39,1.68-21.52a.55.55,0,0,1,0-.18c.74-2.6,5.56-3.37,5.7-3.4a.36.36,0,0,1,.42.29.36.36,0,0,1-.29.42c-.81.16-4.27,1.29-4.81,2.89.1,1.32.92,13.46-1.74,21.82a40.56,40.56,0,0,1-3,7.41c2.67-1.18,7.39-2.87,11.65-2.27,6.51.9,9.63,3.28,10.13,7.71s-2.27,7.88-7.95,10.3A32.32,32.32,0,0,1,256.7,55.19Z"/><path class="a" d="M422.15,55.19c3.47,0,7-1,8-1.76a.36.36,0,0,0,.06-.51.36.36,0,0,0-.5-.06c-1.88,1.44-13.3,1.74-18.53-.49-3.64-1.55-7.87-4.41-7.33-9.24.44-3.93,3.2-6,9.24-6.8,5.41-.75,11.86,2.51,13,3.11a1.2,1.2,0,0,0,.29.14.52.52,0,0,0,.38-.95l-.2-.11c-.35-.29-1.76-1.82-3.94-8.67-2.69-8.46-1.69-21.39-1.68-21.52a.55.55,0,0,0,0-.18c-.73-2.6-5.56-3.37-5.7-3.4a.36.36,0,0,0-.13.71c.81.16,4.27,1.29,4.81,2.89-.1,1.32-.92,13.46,1.74,21.82a40.56,40.56,0,0,0,3,7.41c-2.67-1.18-7.39-2.87-11.65-2.27-6.51.9-9.63,3.28-10.12,7.71s2.26,7.88,8,10.3A32.22,32.22,0,0,0,422.15,55.19Z"/><path class="a" d="M179.54,52.92a3.23,3.23,0,0,1-2.89-1.59c-1.08-1.83-2.41-7-2.45-7.16a.31.31,0,1,1,.59-.18,57.57,57.57,0,0,0,2.75,6.82,2.1,2.1,0,0,0,1.59,1,2.79,2.79,0,0,0,1,0,3.77,3.77,0,0,0,.75-.5A19.21,19.21,0,0,0,185,46c2.84-4.89,5.88-13.23,3.28-20.73A8.51,8.51,0,0,0,184,20.66c-3.79-1.56-9.73,1.58-9.78,1.61-.54.31-6.8,3.35-8.32,3.54-2.59.34-3.95-3.78-4-3.85a.22.22,0,0,1,.12-.3.23.23,0,0,1,.31.12c.16.41,1.95,3.17,3.42,3a42,42,0,0,0,7.94-3.42c.28-.15,6.4-3.31,10.67-1.67a9.24,9.24,0,0,1,4.9,5.2c2.73,7.88-.34,16.38-3.36,21.59-3.14,5.41-5.28,6.25-5.51,6.33A3.5,3.5,0,0,1,179.54,52.92Z"/><path class="a" d="M162.42,52.84a.51.51,0,0,1-.19-1c1.66-.65,3.48-4.22,4-5.53,4.34-14,11.88-35.49,11.88-36.85,0-1.05-2.67-2.79-3.84-3.12a.3.3,0,1,1,.16-.57c.54.15,4.71,1.5,4.71,3.69,0,1.94-10.83,33.6-11.94,37.2-.11.26-2.23,5.2-4.63,6.14A.63.63,0,0,1,162.42,52.84Z"/><path class="a" d="M205.15,29.71h0l-9-.43a.3.3,0,0,1,0-.6h8.48c-1.06-9.29-12.47-12.42-12.53-12.43a.28.28,0,0,1-.2-.34.26.26,0,0,1,.33-.2c.07,0,12.77,3,13.48,13.46a.53.53,0,0,1-.14.4A.51.51,0,0,1,205.15,29.71Z"/></svg>