<svg xmlns="http://www.w3.org/2000/svg" width="740" height="680" viewBox="0 0 740 680"><defs><style>.a{opacity:0.1;}.b,.d,.f,.g,.h,.i,.j,.k,.l,.m,.n,.o,.p,.q,.r,.s,.t,.u,.v,.w,.x{fill:none;}.c{fill:#fff;}.d,.f,.g,.h,.i,.j,.k,.l,.m,.n,.o,.p,.q,.r,.s,.t,.u,.v,.w,.x{stroke:#009ea7;stroke-linejoin:round;}.d{stroke-width:3.703px;}.e{fill:#009fa8;}.f{stroke-width:9.301px;}.g{stroke-width:4.65px;}.h{stroke-width:6.831px;}.i{stroke-width:3.712px;}.j{stroke-width:4.751px;}.k{stroke-width:4.645px;}.l{stroke-width:4.372px;}.m{stroke-width:6.011px;}.n{stroke-width:2.049px;}.o{stroke-width:5.478px;}.p{stroke-width:5.05px;}.q{stroke-width:2.525px;}.r{stroke-width:3.451px;}.s{stroke-width:7.07px;}.t{stroke-width:3.279px;}.u{stroke-width:3.08px;}.v{stroke-width:6.16px;}.w{stroke-width:4.928px;}.x{stroke-width:2.779px;}</style></defs><g class="a" transform="translate(-909.07 -242.704)"><rect class="b" width="740" height="680" transform="translate(909.07 242.704)"/><g transform="translate(961.351 545.354)"><path class="c" d="M1073.907,579.281l7.175,10.929,14.388-7.2-7.172-10.48Z" transform="translate(-934.768 -483.967)"/><path class="d" d="M1073.907,579.281l7.175,10.929,14.388-7.2-7.172-10.48Z" transform="translate(-934.768 -483.967)"/><path class="c" d="M1079.749,601.286l.1-12.907,14.386-7.2-.1,12.908Z" transform="translate(-933.531 -482.135)"/><path class="d" d="M1079.749,601.286l.1-12.907,14.386-7.2-.1,12.908Z" transform="translate(-933.531 -482.135)"/><path class="c" d="M1075.2,578.1l-7.3,5.512-.1,12.907,14.476,5.417.1-12.907Z" transform="translate(-936.061 -482.787)"/><path class="d" d="M1075.2,578.1l-7.3,5.512-.1,12.907,14.476,5.417.1-12.907Z" transform="translate(-936.061 -482.787)"/><path class="c" d="M1051.594,590.44l7.175,10.929,14.386-7.2-7.171-10.48Z" transform="translate(-939.494 -481.603)"/><path class="d" d="M1051.594,590.44l7.175,10.929,14.386-7.2-7.171-10.48Z" transform="translate(-939.494 -481.603)"/><path class="c" d="M1057.435,612.444l.1-12.907,14.387-7.2-.1,12.908Z" transform="translate(-938.257 -479.772)"/><path class="d" d="M1057.435,612.444l.1-12.907,14.387-7.2-.1,12.908Z" transform="translate(-938.257 -479.772)"/><path class="c" d="M1052.886,589.26l-7.3,5.512-.1,12.907,14.475,5.417.1-12.907Z" transform="translate(-940.787 -480.424)"/><path class="d" d="M1052.886,589.26l-7.3,5.512-.1,12.907,14.475,5.417.1-12.907Z" transform="translate(-940.787 -480.424)"/><path class="c" d="M1029.28,601.6l7.175,10.93,14.388-7.2-7.172-10.481Z" transform="translate(-944.221 -479.241)"/><path class="d" d="M1029.28,601.6l7.175,10.93,14.388-7.2-7.172-10.481Z" transform="translate(-944.221 -479.241)"/><path class="c" d="M1035.121,623.6l.1-12.907,14.386-7.2-.1,12.908Z" transform="translate(-942.983 -477.409)"/><path class="d" d="M1035.121,623.6l.1-12.907,14.386-7.2-.1,12.908Z" transform="translate(-942.983 -477.409)"/><path class="c" d="M1030.573,600.417l-7.3,5.514-.1,12.907,14.476,5.417.1-12.907Z" transform="translate(-945.513 -478.061)"/><path class="d" d="M1030.573,600.417l-7.3,5.514-.1,12.907,14.476,5.417.1-12.907Z" transform="translate(-945.513 -478.061)"/><path class="e" d="M1101.219,580.1a13.3,13.3,0,1,0,13.4-13.2,13.3,13.3,0,0,0-13.4,13.2" transform="translate(-928.985 -485.158)"/><line class="f" x1="0.195" y2="25.899" transform="translate(185.335 95.047)"/><line class="g" x1="10.9" y2="2.332" transform="translate(172.878 110.015)"/><line class="g" x2="4.65" y2="11.255" transform="translate(186.993 118.632)"/><line class="g" x1="4.818" y2="11.184" transform="translate(178.896 118.607)"/><path class="c" d="M1094.85,546.943c-.17,22.575-30.7,40.646-68.188,40.365S958.92,568.5,959.088,545.922s30.7-40.646,68.188-40.364,67.743,18.811,67.573,41.385" transform="translate(-959.088 -498.153)"/><path class="h" d="M1094.85,546.943c-.17,22.575-30.7,40.646-68.188,40.365S958.92,568.5,959.088,545.922s30.7-40.646,68.188-40.364S1095.02,524.368,1094.85,546.943Z" transform="translate(-959.088 -498.153)"/><path class="c" d="M1004.124,521.545s2.973,9.865,16.373,4.107" transform="translate(-949.549 -494.766)"/><path class="i" d="M1004.124,521.545s2.973,9.865,16.373,4.107" transform="translate(-949.549 -494.766)"/><path class="c" d="M1001.257,513.348a13.8,13.8,0,1,1-13.692-13.9,13.8,13.8,0,0,1,13.692,13.9" transform="translate(-956 -499.447)"/><path class="j" d="M1001.257,513.348a13.8,13.8,0,1,1-13.692-13.9A13.8,13.8,0,0,1,1001.257,513.348Z" transform="translate(-956 -499.447)"/><path class="e" d="M996.2,514.92a6.959,6.959,0,1,1-6.906-7.012,6.957,6.957,0,0,1,6.906,7.012" transform="translate(-954.175 -497.655)"/><path class="c" d="M1053.085,515.768a13.8,13.8,0,1,1-13.692-13.9,13.8,13.8,0,0,1,13.692,13.9" transform="translate(-945.022 -498.934)"/><path class="j" d="M1053.085,515.768a13.8,13.8,0,1,1-13.692-13.9A13.8,13.8,0,0,1,1053.085,515.768Z" transform="translate(-945.022 -498.934)"/><path class="e" d="M1048.029,517.34a6.959,6.959,0,1,1-6.906-7.012,6.959,6.959,0,0,1,6.906,7.012" transform="translate(-943.197 -497.142)"/></g><g transform="translate(1141.453 509.824)"><path class="c" d="M1257.325,738.736l30.409,11.118,30.026-15.306-30.41-11.119Z" transform="translate(-1076.021 -416.476)"/><path class="k" d="M1257.325,738.736l30.409,11.118,30.026-15.306-30.41-11.119Z" transform="translate(-1076.021 -416.476)"/><path class="c" d="M1282.419,783.413v-35.5l30.026-15.306v35.5Z" transform="translate(-1070.707 -414.533)"/><path class="k" d="M1282.419,783.413v-35.5l30.026-15.306v35.5Z" transform="translate(-1070.707 -414.533)"/><path class="c" d="M1287.734,782.681v-35.5l-30.409-11.118v35.5Z" transform="translate(-1076.021 -413.801)"/><path class="k" d="M1287.734,782.681v-35.5l-30.409-11.118v35.5Z" transform="translate(-1076.021 -413.801)"/><path class="c" d="M1257.325,709.439l30.409,11.118,30.026-15.306-30.41-11.118Z" transform="translate(-1076.021 -422.681)"/><path class="k" d="M1257.325,709.439l30.409,11.118,30.026-15.306-30.41-11.118Z" transform="translate(-1076.021 -422.681)"/><path class="c" d="M1282.419,754.116v-35.5l30.026-15.306v35.5Z" transform="translate(-1070.707 -420.738)"/><path class="k" d="M1282.419,754.116v-35.5l30.026-15.306v35.5Z" transform="translate(-1070.707 -420.738)"/><path class="c" d="M1287.734,753.384v-35.5l-30.409-11.118v35.5Z" transform="translate(-1076.021 -420.006)"/><path class="k" d="M1287.734,753.384v-35.5l-30.409-11.118v35.5Z" transform="translate(-1076.021 -420.006)"/><path class="c" d="M1257.325,680.142l30.409,11.12,30.026-15.308-30.41-11.118Z" transform="translate(-1076.021 -428.886)"/><path class="k" d="M1257.325,680.142l30.409,11.12,30.026-15.308-30.41-11.118Z" transform="translate(-1076.021 -428.886)"/><path class="c" d="M1282.419,724.819v-35.5l30.026-15.307v35.5Z" transform="translate(-1070.707 -426.943)"/><path class="k" d="M1282.419,724.819v-35.5l30.026-15.307v35.5Z" transform="translate(-1070.707 -426.943)"/><path class="c" d="M1287.734,724.087v-35.5l-30.409-11.12v35.5Z" transform="translate(-1076.021 -426.211)"/><path class="k" d="M1287.734,724.087v-35.5l-30.409-11.12v35.5Z" transform="translate(-1076.021 -426.211)"/><path class="c" d="M1257.325,650.845l30.409,11.119,30.026-15.306-30.41-11.12Z" transform="translate(-1076.021 -435.092)"/><path class="k" d="M1257.325,650.845l30.409,11.119,30.026-15.306-30.41-11.12Z" transform="translate(-1076.021 -435.092)"/><path class="c" d="M1282.419,695.523v-35.5l30.026-15.306v35.5Z" transform="translate(-1070.707 -433.148)"/><path class="k" d="M1282.419,695.523v-35.5l30.026-15.306v35.5Z" transform="translate(-1070.707 -433.148)"/><path class="c" d="M1287.734,694.791v-35.5l-30.409-11.12v35.5Z" transform="translate(-1076.021 -432.416)"/><path class="k" d="M1287.734,694.791v-35.5l-30.409-11.12v35.5Z" transform="translate(-1076.021 -432.416)"/><path class="c" d="M1232.231,583.077l30.409,11.12,30.025-15.306-30.409-11.12Z" transform="translate(-1081.337 -449.445)"/><path class="k" d="M1232.231,583.077l30.409,11.12,30.025-15.306-30.409-11.12Z" transform="translate(-1081.337 -449.445)"/><path class="c" d="M1257.325,627.755v-35.5l30.025-15.306v35.5Z" transform="translate(-1076.021 -447.502)"/><path class="k" d="M1257.325,627.755v-35.5l30.025-15.306v35.5Z" transform="translate(-1076.021 -447.502)"/><path class="c" d="M1262.64,627.023v-35.5l-30.409-11.12v35.5Z" transform="translate(-1081.337 -446.77)"/><path class="k" d="M1262.64,627.023v-35.5l-30.409-11.12v35.5Z" transform="translate(-1081.337 -446.77)"/><path class="c" d="M1207.454,625l30.409,11.119,30.025-15.306-30.408-11.12Z" transform="translate(-1086.585 -440.565)"/><path class="k" d="M1207.454,625l30.409,11.119,30.025-15.306-30.408-11.12Z" transform="translate(-1086.585 -440.565)"/><path class="c" d="M1232.548,669.682v-35.5l30.025-15.306v35.5Z" transform="translate(-1081.269 -438.621)"/><path class="k" d="M1232.548,669.682v-35.5l30.025-15.306v35.5Z" transform="translate(-1081.269 -438.621)"/><path class="c" d="M1237.863,668.951v-35.5l-30.409-11.12v35.5Z" transform="translate(-1086.585 -437.89)"/><path class="k" d="M1237.863,668.951v-35.5l-30.409-11.12v35.5Z" transform="translate(-1086.585 -437.89)"/><path class="c" d="M1182.359,557.236l30.41,11.119,30.025-15.306-30.41-11.119Z" transform="translate(-1091.9 -454.919)"/><path class="k" d="M1182.359,557.236l30.41,11.119,30.025-15.306-30.41-11.119Z" transform="translate(-1091.9 -454.919)"/><path class="c" d="M1207.454,601.914v-35.5l30.025-15.306v35.5Z" transform="translate(-1086.585 -452.975)"/><path class="k" d="M1207.454,601.914v-35.5l30.025-15.306v35.5Z" transform="translate(-1086.585 -452.975)"/><path class="c" d="M1212.769,601.182v-35.5l-30.41-11.12v35.5Z" transform="translate(-1091.9 -452.243)"/><path class="k" d="M1212.769,601.182v-35.5l-30.41-11.12v35.5Z" transform="translate(-1091.9 -452.243)"/><path class="c" d="M1157.582,569.868l30.411,11.118,30.025-15.306-30.411-11.12Z" transform="translate(-1097.147 -452.243)"/><path class="k" d="M1157.582,569.868l30.411,11.118,30.025-15.306-30.411-11.12Z" transform="translate(-1097.147 -452.243)"/><path class="c" d="M1182.677,614.545v-35.5l30.025-15.306v35.5Z" transform="translate(-1091.833 -450.3)"/><path class="k" d="M1182.677,614.545v-35.5l30.025-15.306v35.5Z" transform="translate(-1091.833 -450.3)"/><path class="c" d="M1187.992,613.813v-35.5l-30.411-11.118v35.5Z" transform="translate(-1097.147 -449.568)"/><path class="k" d="M1187.992,613.813v-35.5l-30.411-11.118v35.5Z" transform="translate(-1097.147 -449.568)"/><path class="c" d="M1157.582,540.571l30.411,11.12,30.025-15.308-30.411-11.118Z" transform="translate(-1097.147 -458.448)"/><path class="k" d="M1157.582,540.571l30.411,11.12,30.025-15.308-30.411-11.118Z" transform="translate(-1097.147 -458.448)"/><path class="c" d="M1182.677,586.068v-35.5l30.025-15.306v35.5Z" transform="translate(-1091.833 -456.331)"/><path class="k" d="M1182.677,586.068v-35.5l30.025-15.306v35.5Z" transform="translate(-1091.833 -456.331)"/><path class="c" d="M1187.992,584.516v-35.5l-30.411-11.12v35.5Z" transform="translate(-1097.147 -455.773)"/><path class="k" d="M1187.992,584.516v-35.5l-30.411-11.12v35.5Z" transform="translate(-1097.147 -455.773)"/><path class="c" d="M1157.582,511.274l30.411,11.12,30.025-15.306-30.411-11.12Z" transform="translate(-1097.147 -464.654)"/><path class="k" d="M1157.582,511.274l30.411,11.12,30.025-15.306-30.411-11.12Z" transform="translate(-1097.147 -464.654)"/><path class="c" d="M1182.677,555.952v-35.5l30.025-15.306v35.5Z" transform="translate(-1091.833 -462.71)"/><path class="k" d="M1182.677,555.952v-35.5l30.025-15.306v35.5Z" transform="translate(-1091.833 -462.71)"/><path class="c" d="M1187.992,555.22v-35.5l-30.411-11.12v35.5Z" transform="translate(-1097.147 -461.978)"/><path class="k" d="M1187.992,555.22v-35.5l-30.411-11.12v35.5Z" transform="translate(-1097.147 -461.978)"/><path class="c" d="M1107.711,485.433l30.409,11.12,30.025-15.306-30.409-11.119Z" transform="translate(-1107.711 -470.127)"/><path class="k" d="M1107.711,485.433l30.409,11.12,30.025-15.306-30.409-11.119Z" transform="translate(-1107.711 -470.127)"/><path class="c" d="M1132.8,530.111v-35.5l30.025-15.306v35.5Z" transform="translate(-1102.395 -468.183)"/><path class="k" d="M1132.8,530.111v-35.5l30.025-15.306v35.5Z" transform="translate(-1102.395 -468.183)"/><path class="c" d="M1138.12,529.379v-35.5l-30.409-11.12v35.5Z" transform="translate(-1107.711 -467.452)"/><path class="k" d="M1138.12,529.379v-35.5l-30.409-11.12v35.5Z" transform="translate(-1107.711 -467.452)"/><path class="e" d="M1323.108,740.7a13.3,13.3,0,1,0,13.3-13.3,13.3,13.3,0,0,0-13.3,13.3" transform="translate(-1062.089 -415.635)"/><line class="f" y2="25.9" transform="translate(274.317 325.06)"/><line class="g" x1="14.144" y1="4.152" transform="translate(257.151 336.798)"/><line class="g" x2="4.733" y2="11.22" transform="translate(275.957 348.633)"/><line class="g" x1="4.733" y2="11.22" transform="translate(267.944 348.633)"/><path class="e" d="M1256.794,550.971a13.3,13.3,0,1,0,13.3-13.3,13.3,13.3,0,0,0-13.3,13.3" transform="translate(-1076.134 -455.82)"/><line class="f" y2="25.9" transform="translate(193.956 95.152)"/><line class="g" x2="4.733" y2="11.22" transform="translate(195.596 118.725)"/><line class="g" x1="4.735" y2="11.22" transform="translate(187.583 118.725)"/><line class="g" x1="9.831" y2="2.231" transform="translate(181.828 109.386)"/></g><g transform="translate(1323.125 470.981)"><path class="c" d="M1302.67,438.073l42.4,15.5v15.206l-42.4-15.5Z" transform="translate(-1248.089 -438.073)"/><path class="l" d="M1302.67,438.073l42.4,15.5v15.206l-42.4-15.5Z" transform="translate(-1248.089 -438.073)"/><path class="c" d="M1290.02,458.433l42.394,15.5,15.33-7.811-42.4-15.5Z" transform="translate(-1250.768 -435.415)"/><path class="l" d="M1290.02,458.433l42.394,15.5,15.33-7.811-42.4-15.5Z" transform="translate(-1250.768 -435.415)"/><path class="c" d="M1290.02,457.067l42.394,15.5v15.206l-42.394-15.5Z" transform="translate(-1250.768 -434.05)"/><path class="l" d="M1290.02,457.067l42.394,15.5v15.206l-42.394-15.5Z" transform="translate(-1250.768 -434.05)"/><path class="c" d="M1257.629,489.618l42.394,15.5,39.253-20-42.393-15.5Z" transform="translate(-1257.629 -431.392)"/><path class="l" d="M1257.629,489.618l42.394,15.5,39.253-20-42.393-15.5Z" transform="translate(-1257.629 -431.392)"/><path class="c" d="M1292.613,515.356l15.656,5.787,39.252-20-15.655-5.789Z" transform="translate(-1250.218 -425.941)"/><path class="l" d="M1292.613,515.356l15.656,5.787,39.252-20-15.655-5.789Z" transform="translate(-1250.218 -425.941)"/><path class="c" d="M1292.613,518.1V502.409l39.253-20V498.1Z" transform="translate(-1250.218 -428.683)"/><path class="l" d="M1292.613,518.1V502.409l39.253-20V498.1Z" transform="translate(-1250.218 -428.683)"/><path class="c" d="M1305.533,533.079l15.655,5.788,39.253-20-15.656-5.789Z" transform="translate(-1247.482 -422.187)"/><path class="l" d="M1305.533,533.079l15.655,5.788,39.253-20-15.656-5.789Z" transform="translate(-1247.482 -422.187)"/><path class="c" d="M1305.533,535.821V520.133l39.251-20v15.688Z" transform="translate(-1247.482 -424.929)"/><path class="l" d="M1305.533,535.821V520.133l39.251-20v15.688Z" transform="translate(-1247.482 -424.929)"/><path class="c" d="M1318.452,550.8l15.655,5.788,39.253-20L1357.7,530.8Z" transform="translate(-1244.746 -418.433)"/><path class="l" d="M1318.452,550.8l15.655,5.788,39.253-20L1357.7,530.8Z" transform="translate(-1244.746 -418.433)"/><path class="c" d="M1318.452,553.545V537.856l39.253-20v15.689Z" transform="translate(-1244.746 -421.175)"/><path class="l" d="M1318.452,553.545V537.856l39.253-20v15.689Z" transform="translate(-1244.746 -421.175)"/><path class="c" d="M1331.371,568.526l15.656,5.787,39.252-20-15.655-5.789Z" transform="translate(-1242.01 -414.68)"/><path class="l" d="M1331.371,568.526l15.656,5.787,39.252-20-15.655-5.789Z" transform="translate(-1242.01 -414.68)"/><path class="c" d="M1331.371,571.267V555.579l39.253-20v15.688Z" transform="translate(-1242.01 -417.421)"/><path class="l" d="M1331.371,571.267V555.579l39.253-20v15.688Z" transform="translate(-1242.01 -417.421)"/><path class="c" d="M1344.291,586.249l15.656,5.788,39.251-20-15.656-5.789Z" transform="translate(-1239.273 -410.925)"/><path class="l" d="M1344.291,586.249l15.656,5.788,39.251-20-15.656-5.789Z" transform="translate(-1239.273 -410.925)"/><path class="c" d="M1344.291,588.991V573.3l39.251-20v15.689Z" transform="translate(-1239.273 -413.668)"/><path class="l" d="M1344.291,588.991V573.3l39.251-20v15.689Z" transform="translate(-1239.273 -413.668)"/><path class="c" d="M1357.21,606.714V591.026l39.251-20v15.688Z" transform="translate(-1236.537 -409.914)"/><path class="l" d="M1357.21,606.714V591.026l39.251-20v15.688Z" transform="translate(-1236.537 -409.914)"/><path class="c" d="M1357.21,603.972l15.655,5.788,39.253-20-15.656-5.789Z" transform="translate(-1236.537 -407.172)"/><path class="l" d="M1357.21,603.972l15.655,5.788,39.253-20-15.656-5.789Z" transform="translate(-1236.537 -407.172)"/><path class="c" d="M1370.129,624.436V608.748l39.253-20v15.688Z" transform="translate(-1233.801 -406.16)"/><path class="l" d="M1370.129,624.436V608.748l39.253-20v15.688Z" transform="translate(-1233.801 -406.16)"/><path class="e" d="M1463.215,650.1a13.3,13.3,0,1,0,13.3-13.3,13.3,13.3,0,0,0-13.3,13.3" transform="translate(-1214.085 -395.981)"/><line class="f" y2="25.901" transform="translate(262.428 254.119)"/><line class="g" x1="12.391" y1="1.505" transform="translate(247.016 268.504)"/><line class="g" x2="4.734" y2="11.219" transform="translate(264.067 277.694)"/><line class="g" x1="4.733" y2="11.219" transform="translate(256.056 277.694)"/><path class="c" d="M1370.129,621.694l15.656,5.788,39.253-20-15.655-5.789Z" transform="translate(-1233.801 -403.418)"/><path class="l" d="M1370.129,621.694l15.656,5.788,39.253-20-15.655-5.789Z" transform="translate(-1233.801 -403.418)"/><path class="c" d="M1383.048,642.16V626.471l39.253-20v15.689Z" transform="translate(-1231.065 -402.406)"/><path class="l" d="M1383.048,642.16V626.471l39.253-20v15.689Z" transform="translate(-1231.065 -402.406)"/><path class="c" d="M1383.048,639.418l15.656,5.788,39.252-20-15.655-5.789Z" transform="translate(-1231.065 -399.664)"/><path class="l" d="M1383.048,639.418l15.656,5.788,39.252-20-15.655-5.789Z" transform="translate(-1231.065 -399.664)"/><path class="c" d="M1395.968,659.883V644.195l39.252-20v15.688Z" transform="translate(-1228.328 -398.652)"/><path class="l" d="M1395.968,659.883V644.195l39.252-20v15.688Z" transform="translate(-1228.328 -398.652)"/><path class="c" d="M1395.968,657.141l15.655,5.788,39.251-20-15.655-5.789Z" transform="translate(-1228.328 -395.91)"/><path class="l" d="M1395.968,657.141l15.655,5.788,39.251-20-15.655-5.789Z" transform="translate(-1228.328 -395.91)"/><path class="c" d="M1408.887,677.606V661.917l39.252-20V657.6Z" transform="translate(-1225.592 -394.898)"/><path class="l" d="M1408.887,677.606V661.917l39.252-20V657.6Z" transform="translate(-1225.592 -394.898)"/><path class="c" d="M1408.887,674.864l15.655,5.787,39.253-20-15.656-5.789Z" transform="translate(-1225.592 -392.156)"/><path class="l" d="M1408.887,674.864l15.655,5.787,39.253-20-15.656-5.789Z" transform="translate(-1225.592 -392.156)"/><path class="c" d="M1421.805,695.329V679.641l39.253-20v15.688Z" transform="translate(-1222.855 -391.145)"/><path class="l" d="M1421.805,695.329V679.641l39.253-20v15.688Z" transform="translate(-1222.855 -391.145)"/></g><g transform="translate(1323.074 300.378)"><path class="c" d="M1257.587,415.524V391.009l150.9-76.853v24.515Z" transform="translate(-1257.587 -293.716)"/><path class="m" d="M1257.587,415.524V391.009l150.9-76.853v24.515Z" transform="translate(-1257.587 -293.716)"/><path class="c" d="M1257.587,411.307l135.1,49.4,150.9-76.853-135.1-49.4Z" transform="translate(-1257.587 -289.417)"/><path class="m" d="M1257.587,411.307l135.1,49.4,150.9-76.853-135.1-49.4Z" transform="translate(-1257.587 -289.417)"/><path class="c" d="M1262.26,406.5l129.747,47.44,144.924-73.807L1407.184,332.7Z" transform="translate(-1256.597 -289.79)"/><path class="n" d="M1262.26,406.5l129.747,47.44,144.924-73.807L1407.184,332.7Z" transform="translate(-1256.597 -289.79)"/><path class="c" d="M1262.26,402.406l129.747,47.44,144.924-73.809L1407.184,328.6Z" transform="translate(-1256.597 -290.658)"/><path class="n" d="M1262.26,402.406l129.747,47.44,144.924-73.809L1407.184,328.6Z" transform="translate(-1256.597 -290.658)"/><path class="c" d="M1262.26,398.308l129.747,47.441,144.924-73.809L1407.184,324.5Z" transform="translate(-1256.597 -291.526)"/><path class="n" d="M1262.26,398.308l129.747,47.441,144.924-73.809L1407.184,324.5Z" transform="translate(-1256.597 -291.526)"/><path class="c" d="M1257.587,391.009l135.1,49.4,150.9-76.853-135.1-49.4Z" transform="translate(-1257.587 -293.716)"/><path class="m" d="M1257.587,391.009l135.1,49.4,150.9-76.853-135.1-49.4Z" transform="translate(-1257.587 -293.716)"/><path class="e" d="M1367.381,310.586a13.3,13.3,0,1,1-13.3-13.3,13.3,13.3,0,0,1,13.3,13.3" transform="translate(-1239.964 -297.289)"/><line class="f" y2="25.901" transform="translate(114.12 13.297)"/><line class="c" y1="6.198" x2="10.109" transform="translate(102.204 28.014)"/><line class="g" y1="6.198" x2="10.109" transform="translate(102.204 28.014)"/><line class="c" x1="4.733" y2="11.219" transform="translate(107.579 36.871)"/><line class="g" x1="4.733" y2="11.219" transform="translate(107.579 36.871)"/><line class="c" x2="4.733" y2="11.219" transform="translate(116.417 36.871)"/><line class="g" x2="4.733" y2="11.219" transform="translate(116.417 36.871)"/></g><g transform="translate(1454.571 447.384)"><line class="c" x2="30.175" y2="11.032" transform="translate(73.908 37.41)"/><line class="o" x2="30.175" y2="11.032" transform="translate(73.908 37.41)"/><path class="c" d="M1457.69,458.33a9.144,9.144,0,1,1-9.144-9.144,9.144,9.144,0,0,1,9.144,9.144" transform="translate(-1350.575 -412.122)"/><circle class="p" cx="9.144" cy="9.144" r="9.144" transform="translate(86.023 41.26) rotate(-22.5)"/><line class="o" x1="66.72" y2="34.07" transform="translate(7.421 50.912)"/><line class="q" x1="49.855" y2="25.396" transform="translate(46.639 46.961)"/><path class="c" d="M1380.943,490.025a7.421,7.421,0,1,1-7.421-7.421,7.422,7.422,0,0,1,7.421,7.421" transform="translate(-1366.1 -405.044)"/><path class="r" d="M1380.943,490.025a7.421,7.421,0,1,1-7.421-7.421A7.422,7.422,0,0,1,1380.943,490.025Z" transform="translate(-1366.1 -405.044)"/><path class="c" d="M1455.666,427.9a7.421,7.421,0,1,1-7.421-7.421,7.421,7.421,0,0,1,7.421,7.421" transform="translate(-1350.273 -418.202)"/><circle class="r" cx="7.421" cy="7.421" r="7.421" transform="translate(88.275 5.68) rotate(-22.5)"/><line class="q" y2="19.948" transform="translate(97.971 17.117)"/><line class="o" x2="20.871" y2="7.632" transform="translate(104.083 48.443)"/></g><g transform="translate(948.401 282.704)"><path class="e" d="M1197.76,426.5a13.3,13.3,0,1,0,13.3-13.3,13.3,13.3,0,0,0-13.3,13.3" transform="translate(-895.586 -255.063)"/><line class="f" y2="25.901" transform="translate(315.471 171.44)"/><line class="g" x1="16.826" y1="5.19" transform="translate(295.624 182.14)"/><line class="g" x2="4.733" y2="11.22" transform="translate(317.111 195.014)"/><line class="g" x1="4.733" y2="11.22" transform="translate(309.098 195.014)"/><path class="c" d="M1225.925,392.61c-.691,12.875-15.074,22.571-32.127,21.655s-30.312-12.1-29.62-24.972,15.074-22.57,32.125-21.654,30.312,12.095,29.622,24.97" transform="translate(-902.704 -264.727)"/><path class="m" d="M1225.925,392.61c-.691,12.875-15.074,22.571-32.127,21.655s-30.312-12.1-29.62-24.972,15.074-22.57,32.125-21.654S1226.616,379.734,1225.925,392.61Z" transform="translate(-902.704 -264.727)"/><path class="c" d="M1204.606,407.086c-2.922,11.012-16.148,18.844-31.55,18.016-17.051-.916-30.313-12.1-29.621-24.97s15.075-22.571,32.125-21.655a40.262,40.262,0,0,1,9.342,1.606" transform="translate(-907.098 -262.432)"/><path class="m" d="M1204.606,407.086c-2.922,11.012-16.148,18.844-31.55,18.016-17.051-.916-30.313-12.1-29.621-24.97s15.075-22.571,32.125-21.655a40.262,40.262,0,0,1,9.342,1.606" transform="translate(-907.098 -262.432)"/><path class="c" d="M1183.557,418.949c-3.45,10.469-16.327,17.79-31.247,16.99-17.05-.916-30.312-12.1-29.621-24.97s15.075-22.57,32.126-21.655a40.315,40.315,0,0,1,9.041,1.517" transform="translate(-911.492 -260.136)"/><path class="m" d="M1183.557,418.949c-3.45,10.469-16.327,17.79-31.247,16.99-17.05-.916-30.312-12.1-29.621-24.97s15.075-22.57,32.126-21.655a40.315,40.315,0,0,1,9.041,1.517" transform="translate(-911.492 -260.136)"/><path class="c" d="M1055.613,319.868l-.274-.145c-7.07-5.794-19.157-7.408-32.887-3.326-21.8,6.476-39.463,24.837-39.463,41.009a17.832,17.832,0,0,0,5.05,12.827v76.91l54.771,29.964,63.3-130Z" transform="translate(-941.075 -276.048)"/><path class="s" d="M1055.613,319.868l-.274-.145c-7.07-5.794-19.157-7.408-32.887-3.326-21.8,6.476-39.463,24.837-39.463,41.009a17.832,17.832,0,0,0,5.05,12.827v76.91l54.771,29.964,63.3-130Z" transform="translate(-941.075 -276.048)"/><path class="c" d="M1028.185,382.131c0-16.171,17.668-34.533,39.462-41.009s39.463,1.381,39.463,17.553c0,5.207-1.84,10.638-5.051,15.83v76.91l-68.823,20.454V394.958a17.83,17.83,0,0,1-5.051-12.827" transform="translate(-931.502 -270.812)"/><path class="s" d="M1028.185,382.131c0-16.171,17.668-34.533,39.462-41.009s39.463,1.381,39.463,17.553c0,5.207-1.84,10.638-5.051,15.83v76.91l-68.823,20.454V394.958A17.83,17.83,0,0,1,1028.185,382.131Z" transform="translate(-931.502 -270.812)"/><path class="e" d="M1018.8,296a13.3,13.3,0,1,0,13.3-13.3,13.3,13.3,0,0,0-13.3,13.3" transform="translate(-933.491 -282.704)"/><line class="f" y2="25.901" transform="translate(98.606 13.297)"/><line class="g" y1="4.835" x2="9.611" transform="translate(103.105 24.592)"/><line class="g" x1="9.612" y1="4.835" transform="translate(84.495 24.592)"/><line class="g" x2="4.733" y2="11.219" transform="translate(100.246 36.871)"/><line class="g" x1="4.735" y2="11.219" transform="translate(92.232 36.871)"/><path class="e" d="M974.994,407.5a13.3,13.3,0,1,1-13.3-13.3,13.3,13.3,0,0,1,13.3,13.3" transform="translate(-948.401 -259.087)"/><line class="f" y2="25.9" transform="translate(13.296 148.415)"/><line class="g" y1="3.535" x2="12.047" transform="translate(16.317 160.77)"/><line class="g" x1="4.733" y2="11.22" transform="translate(6.923 171.989)"/><line class="g" x2="4.733" y2="11.22" transform="translate(14.936 171.989)"/><line class="c" x2="54.77" y2="29.963" transform="translate(45.226 94.364)"/><line class="t" x2="54.77" y2="29.963" transform="translate(45.226 94.364)"/><path class="c" d="M988.844,357.169s2.265,3.312,2.253,5.37l2.447-2.861-2.9-3.386h-1.327" transform="translate(-939.835 -267.118)"/></g><g transform="translate(983.33 727.838)"><path class="e" d="M1003.819,714.977a13.3,13.3,0,1,1-13.3-13.3,13.3,13.3,0,0,1,13.3,13.3" transform="translate(-977.225 -639.097)"/><line class="f" y2="25.901" transform="translate(13.297 75.88)"/><line class="g" x2="12.011" y2="0.773" transform="translate(16.318 91.77)"/><line class="g" x1="4.735" y2="11.219" transform="translate(6.754 99.455)"/><line class="g" x2="4.735" y2="11.219" transform="translate(15.594 99.455)"/><line class="u" x1="23.977" y2="5.037" transform="translate(163.376 85.477)"/><path class="c" d="M1070.154,717.162a20.121,20.121,0,1,1-20.812-19.407,20.12,20.12,0,0,1,20.812,19.407" transform="translate(-966.063 -639.931)"/><path class="v" d="M1070.154,717.162a20.121,20.121,0,1,1-20.812-19.407A20.12,20.12,0,0,1,1070.154,717.162Z" transform="translate(-966.063 -639.931)"/><path class="c" d="M1095.5,725.439a20.121,20.121,0,1,1-20.81-19.407,20.12,20.12,0,0,1,20.81,19.407" transform="translate(-960.694 -638.178)"/><path class="v" d="M1095.5,725.439a20.121,20.121,0,1,1-20.81-19.407A20.12,20.12,0,0,1,1095.5,725.439Z" transform="translate(-960.694 -638.178)"/><path class="c" d="M1076.4,736.024a20.121,20.121,0,1,1-20.81-19.406,20.121,20.121,0,0,1,20.81,19.406" transform="translate(-964.741 -635.936)"/><path class="v" d="M1076.4,736.024a20.121,20.121,0,1,1-20.81-19.406A20.121,20.121,0,0,1,1076.4,736.024Z" transform="translate(-964.741 -635.936)"/><path class="c" d="M1057.293,746.609a20.121,20.121,0,1,1-20.81-19.406,20.121,20.121,0,0,1,20.81,19.406" transform="translate(-968.787 -633.694)"/><path class="v" d="M1057.293,746.609a20.121,20.121,0,1,1-20.81-19.406A20.121,20.121,0,0,1,1057.293,746.609Z" transform="translate(-968.787 -633.694)"/><path class="c" d="M1096.179,695.2a20.121,20.121,0,1,1-20.81-19.407,20.12,20.12,0,0,1,20.81,19.407" transform="translate(-960.551 -644.583)"/><path class="v" d="M1096.179,695.2a20.121,20.121,0,1,1-20.81-19.407A20.12,20.12,0,0,1,1096.179,695.2Z" transform="translate(-960.551 -644.583)"/><path class="c" d="M1063.506,669.439a10.3,10.3,0,1,1-10.654-9.936,10.3,10.3,0,0,1,10.654,9.936" transform="translate(-963.313 -648.032)"/><path class="w" d="M1063.506,669.439a10.3,10.3,0,1,1-10.654-9.936A10.3,10.3,0,0,1,1063.506,669.439Z" transform="translate(-963.313 -648.032)"/><path class="c" d="M1116.82,681.945a10.3,10.3,0,1,1-10.654-9.935,10.3,10.3,0,0,1,10.654,9.935" transform="translate(-952.021 -645.383)"/><path class="w" d="M1116.82,681.945a10.3,10.3,0,1,1-10.654-9.935A10.3,10.3,0,0,1,1116.82,681.945Z" transform="translate(-952.021 -645.383)"/><path class="c" d="M1120.851,733.716a20.121,20.121,0,1,1-20.811-19.407,20.121,20.121,0,0,1,20.811,19.407" transform="translate(-955.326 -636.425)"/><path class="v" d="M1120.851,733.716a20.121,20.121,0,1,1-20.811-19.407A20.121,20.121,0,0,1,1120.851,733.716Z" transform="translate(-955.326 -636.425)"/><line class="x" x1="6.248" y2="21.289" transform="translate(119.467 10.302)"/><line class="x" x1="11.397" y2="4.667" transform="translate(134.691 40.551)"/><line class="x" x2="7.352" y2="6.26" transform="translate(95.826 30.473)"/><path class="c" d="M1093.063,659.978a10.3,10.3,0,1,1-10.654-9.936,10.3,10.3,0,0,1,10.654,9.936" transform="translate(-957.053 -650.036)"/><path class="w" d="M1093.063,659.978a10.3,10.3,0,1,1-10.654-9.936A10.3,10.3,0,0,1,1093.063,659.978Z" transform="translate(-957.053 -650.036)"/><path class="c" d="M1140.781,714.6a10.3,10.3,0,1,1-10.654-9.937,10.3,10.3,0,0,1,10.654,9.937" transform="translate(-946.946 -638.466)"/><path class="w" d="M1140.781,714.6a10.3,10.3,0,1,1-10.654-9.937A10.3,10.3,0,0,1,1140.781,714.6Z" transform="translate(-946.946 -638.466)"/><line class="u" x1="16.357" y1="11.225" transform="translate(47.544 58.696)"/><path class="c" d="M1031.794,694.641a10.3,10.3,0,1,1-10.654-9.936,10.3,10.3,0,0,1,10.654,9.936" transform="translate(-970.03 -642.694)"/><path class="w" d="M1031.794,694.641a10.3,10.3,0,1,1-10.654-9.936A10.3,10.3,0,0,1,1031.794,694.641Z" transform="translate(-970.03 -642.694)"/></g></g></svg>