<svg xmlns="http://www.w3.org/2000/svg" width="240" height="150" viewBox="0 0 240 150"><defs><style>.a{fill:none;}.b{fill:#231815;}.c{fill:#ea5a00;}.d{fill:#009800;}.e{fill:#006000;}.f{fill:#d72200;}.g{fill:#c50d00;}.h{fill:#b50500;}</style></defs><g transform="translate(-32.88 218.917)"><rect class="a" width="240" height="150" transform="translate(32.88 -218.917)"/><g transform="translate(94.67 -218.917)"><path class="b" d="M111.683,49.737h-1.676l-3.563-5.918v5.918H104.83V41.666h2.109l3.131,5.217V41.666h1.613Z" transform="translate(-104.83 -41.129)"/><path class="b" d="M120.584,42.757h-2.61v7.037h-1.739V42.757h-2.609V41.57h6.957Z" transform="translate(-105.529 -41.122)"/><path class="b" d="M129.578,42.757h-2.61v7.037H125.23V42.757h-2.61V41.57h6.958Z" transform="translate(-106.243 -41.122)"/><path class="b" d="M140.026,49.371h-5.943v.469h-1.315V43.764h2.474v-1.09h-2.8V41.556h9.228v1.118h-3.221v1.09h2.889V49.84h-1.31Zm-5.943-1.139h5.943V44.786h-1.632v1.4a.118.118,0,0,0,.132.136h.2c.1,0,.166-.037.186-.11a4.078,4.078,0,0,0,.029-.667c0-.1,0-.218-.006-.342l.88.151v1.09a1.17,1.17,0,0,1-.127.584.63.63,0,0,1-.354.3,3.722,3.722,0,0,1-.945.075,3.136,3.136,0,0,1-.667-.054.617.617,0,0,1-.384-.3,1.264,1.264,0,0,1-.151-.666v-1.6h-.758a5.2,5.2,0,0,1-.56,1.73,4.271,4.271,0,0,1-.97,1.252l-.811-.7a3.969,3.969,0,0,0,1.084-2.282h-1.09Zm2.415-4.467h.689v-1.09H136.5Z" transform="translate(-107.024 -41.121)"/><path class="b" d="M150.526,49.418h-4.7v.45h-1.432v-8.2h7.585v8.2h-1.452Zm0-4.545V42.836h-4.7v2.038Zm-4.7,3.342h4.7V46h-4.7Z" transform="translate(-107.973 -41.13)"/><path class="b" d="M158.5,45.608a11.492,11.492,0,0,1-1.637,1.777,11.176,11.176,0,0,1-1.853,1.366l-.743-1a11.342,11.342,0,0,0,2.207-1.777,10.589,10.589,0,0,0,1.616-2.026h-3.353V42.715H158.5V41.083h1.412v1.632h3.8v1.232h-3.435a10.93,10.93,0,0,0,3.89,3.6l-.84,1.164a11.485,11.485,0,0,1-3.417-3.119v1.667h1.442v1.173h-1.442v1.549H158.5V48.434h-1.48V47.261h1.48Z" transform="translate(-108.758 -41.083)"/><path class="b" d="M175.594,48.972l-1.1,1.051a44.889,44.889,0,0,0-3.342-3.075,14.89,14.89,0,0,1-4.574,3.1l-.714-1.153a13.637,13.637,0,0,0,3.639-2.356,10.181,10.181,0,0,0,2.617-3.422l-4.951,0v-1.28h6.422l.4.386a9.418,9.418,0,0,1-.8,2.041,12.093,12.093,0,0,1-1.131,1.645Q174.171,47.624,175.594,48.972Z" transform="translate(-109.679 -41.143)"/><path class="b" d="M186.659,48.063l-.89,1.461q-1.632-1.794-2.619-2.817t-1.372-1.462q-.384-.436-.984-1.083a.143.143,0,0,0-.059-.009.125.125,0,0,0-.054.009c-.013.006-.143.181-.39.523s-.559.789-.933,1.339l-1.525,2.19L176.737,47.2q2.483-3.6,2.881-4.041a1.355,1.355,0,0,1,1.062-.445,1.639,1.639,0,0,1,.514.08,1.471,1.471,0,0,1,.423.215,11.887,11.887,0,0,1,.858.823l1.608,1.642Q184.942,46.318,186.659,48.063Zm-1.153-5a.99.99,0,0,1-.313.75,1.2,1.2,0,0,1-1.574,0,1.056,1.056,0,0,1,0-1.5,1.2,1.2,0,0,1,1.574,0A.99.99,0,0,1,185.505,43.064Zm-.658-.44a.631.631,0,1,0,.179.44A.6.6,0,0,0,184.847,42.624Z" transform="translate(-110.543 -41.157)"/><path class="b" d="M193.138,45.206l-.665,1.232q-1.085-.474-1.787-.713t-2.334-.7l.557-1.153a18.577,18.577,0,0,1,1.86.476Q191.608,44.614,193.138,45.206Zm4.374-.381a8.876,8.876,0,0,1-3.316,3.539,11.82,11.82,0,0,1-4.983,1.5l-.322-1.31a11.683,11.683,0,0,0,4.3-1.217,8.123,8.123,0,0,0,3.1-3.128Zm-3.425-2.013-.689,1.222q-.533-.239-1.1-.474t-.923-.347l-2.053-.66.572-1.129A29.808,29.808,0,0,1,194.086,42.811Z" transform="translate(-111.466 -41.11)"/><path class="b" d="M203.562,50.031l-1.217.137-.948-4.746-1.676.235-.17-1.1,1.632-.214-.332-1.667,1.192-.127.332,1.638,4.491-.6.592.469a7.854,7.854,0,0,1-2.571,3.651l-.83-.758a7.063,7.063,0,0,0,1.759-2.141l-3.221.45Z" transform="translate(-112.356 -41.199)"/><path class="b" d="M211.771,44.429a7.042,7.042,0,0,1-.758,3.6,5.176,5.176,0,0,1-2.356,2.045l-.572-1.192a3.716,3.716,0,0,0,1.647-1.552,6.6,6.6,0,0,0,.577-3.13V41.9h1.461ZM218.056,46a7.605,7.605,0,0,1-1.895,2.509,6.3,6.3,0,0,1-2.641,1.381l-.582-.48v-7.8H214.4v6.378a5.811,5.811,0,0,0,2.522-2.868Z" transform="translate(-113.034 -41.125)"/></g><g transform="translate(32.88 -196.997)"><path class="c" d="M118.909,164.336a10.409,10.409,0,0,0-10.4,10.4h7.506a2.891,2.891,0,1,1,5.783,0,2,2,0,0,1-.475,1.475l-8.978,10.037h10.072l4.633-5.181.163-.2a9.466,9.466,0,0,0,2.092-6.133,10.41,10.41,0,0,0-10.4-10.4" transform="translate(-38.889 -71.05)"/><path class="d" d="M194.1,63,180.712,76.585l6.5,6.128,4.655-4.52L189.977,76.4l8.731-8.864L194.1,63" transform="translate(-44.626 -62.998)"/><path class="d" d="M194.9,76.346,191.9,79.253l2.381,2.258-4.432,4.719-2.6-2.457-6,5.824,2.471,5.551,5.444-.355-.112-2.485,6.466-.292.106,2.355,2.446-.16-2.01-6.364-3.979.252,7.323-7.112-4.51-4.643" transform="translate(-44.669 -64.059)"/><path class="e" d="M192.423,79.5l-4.655,4.52,2.6,2.457,4.432-4.719L192.423,79.5" transform="translate(-45.186 -64.309)"/><path class="d" d="M196.312,95.928l-6.46.422.545,12.08,6.466-.291-.551-12.21" transform="translate(-45.352 -65.614)"/><path class="e" d="M196.2,93.369l-6.466.292.112,2.485,6.46-.422-.106-2.355" transform="translate(-45.342 -65.411)"/><path class="d" d="M181.939,98.824l-2.79,6.357,5.924,2.61,2.79-6.358-5.924-2.609" transform="translate(-44.502 -65.845)"/><path class="d" d="M204.09,98.689l-5.283,2.475,2.637,5.512,5.283-2.475-2.637-5.512" transform="translate(-46.063 -65.834)"/><path class="d" d="M215.8,63.949,204.549,75.508l4.638,4.516,1.547-1.589-.071-1.578,1.681-.076,3.857-3.961,4.193,3.6,1.55-.07.066,1.456,2.584,2.217,4.214-4.912-13-11.16" transform="translate(-46.52 -63.074)"/><path class="d" d="M220.928,77.494l-8.05.363-1.61,1.654.191,4.25,11.281-.509-.2-4.372-1.615-1.386" transform="translate(-47.054 -64.15)"/><path class="e" d="M212.872,77.851l-1.682.076.072,1.578,1.61-1.654m9.6-.433-1.549.07,1.616,1.386-.066-1.456" transform="translate(-47.047 -64.144)"/><path class="d" d="M225.931,86.116l-17.563.6.223,6.469,3.393-.117.873-3.5,6.28,1.565-.425,1.707,7.442-.257-.223-6.468" transform="translate(-46.823 -64.835)"/><path class="d" d="M33.257,150.4l-.378,7.356,30.806,1.584.378-7.356L33.257,150.4" transform="translate(-32.88 -69.943)"/><path class="d" d="M34.37,119.909l-.387,7.355L64,128.846l.387-7.355L34.37,119.909" transform="translate(-32.968 -67.52)"/><path class="d" d="M40.582,135.319l-.393,7.355,18.693,1,.393-7.355-18.693-1" transform="translate(-33.461 -68.744)"/><path class="c" d="M265.8,71.572l-.145,5.393,2.275,1.94,13.1.253.141-7.288-15.369-.3m-22.627-.436-.143,7.288,12.9.249,2.434-1.687.149-5.554-15.339-.3" transform="translate(-49.577 -63.645)"/><path class="c" d="M258.969,100.476l-.174,6.454,7.286.2.175-6.486-7.287-.164m4.222-17.629-3.818,2.647-.207,7.7,7.287.163.2-7.552-3.464-2.954M259.937,64.48l-.173,6.423,7.288.141.171-6.367-7.286-.2" transform="translate(-50.83 -63.116)"/><path class="f" d="M259.835,71.457l-.149,5.554,1.739-1.206,2.082,3,2.36-2.767,1.111.947.145-5.392-7.288-.141" transform="translate(-50.901 -63.67)"/><path class="c" d="M255.578,79.323,238.617,91.081l4.152,5.991,15-10.4.2-7.3-2.387-.046" transform="translate(-49.227 -64.295)"/><path class="f" d="M259.476,77.49l-2.434,1.687,2.387.046.047-1.733" transform="translate(-50.69 -64.149)"/><path class="f" d="M259.618,79.373l-.2,7.3,3.819-2.647-2.125-1.812,2.363-2.77-3.86-.075" transform="translate(-50.88 -64.299)"/><path class="g" d="M261.421,76.181l-1.739,1.206-.047,1.733,3.86.075.008-.009-2.082-3" transform="translate(-50.897 -64.045)"/><path class="c" d="M267.535,79.526l-.2,7.47,14.672,12.51,4.729-5.546L269.86,79.571l-2.326-.045" transform="translate(-51.508 -64.311)"/><path class="f" d="M267.6,77.468l-.051,1.895,2.326.045-2.275-1.94" transform="translate(-51.526 -64.148)"/><path class="f" d="M263.823,79.455l2.063,2.977-2.316,1.605,3.464,2.954.2-7.47-3.413-.066" transform="translate(-51.209 -64.306)"/><path class="g" d="M266.2,76.438l-2.36,2.767.007.01,3.413.066.051-1.895-1.111-.947" transform="translate(-51.23 -64.066)"/><path class="g" d="M263.625,79.454l-2.363,2.77,2.125,1.812,2.316-1.605-2.063-2.977h-.015" transform="translate(-51.026 -64.306)"/><path class="h" d="M263.836,79.444l-.008.009h.015l-.007-.01" transform="translate(-51.23 -64.305)"/><path class="c" d="M265.937,95.819l-.2,7.287,5.969.133.163-7.288-5.936-.133m-13.468-.3-.162,7.287,6.146.137.2-7.286-6.181-.138" transform="translate(-50.314 -65.582)"/><path class="f" d="M259.18,95.668l-.2,7.287,7.287.163.2-7.287-7.287-.163" transform="translate(-50.845 -65.594)"/><path class="c" d="M98.171,133.365l-15.045.335.164,7.363,6.844-.152-.387,4.512,7.406-.166,1.018-11.892" transform="translate(-36.872 -68.589)"/><path class="c" d="M102.869,146.139l-5.952.134-.4,4.678-7.338-.628.333-3.883-9.347.21.165,7.364,22.705-.511-.166-7.363" transform="translate(-36.637 -69.604)"/><path class="f" d="M97.7,146.284l-7.406.166-.333,3.883,7.338.628.4-4.678" transform="translate(-37.415 -69.615)"/><path class="d" d="M144.981,134.178,117.8,135.643l.4,7.355,27.179-1.465-.4-7.355" transform="translate(-39.627 -68.654)"/><path class="c" d="M165.358,119.292l-2.1,7.06,13.717,4.08,2.1-7.06-13.718-4.08" transform="translate(-43.239 -67.471)"/><path class="c" d="M162.949,131.1l-2.078,7.067,11.607,3.277,2.079-7.067L162.949,131.1" transform="translate(-43.049 -68.409)"/><path class="c" d="M191.16,139.54l-22.847,13.535,3.754,6.338,22.846-13.536-3.753-6.337" transform="translate(-43.641 -69.08)"/><path class="c" d="M192.873,119.282l-4.21,1.189,2.975,10.368,4.211-1.189-2.976-10.368" transform="translate(-45.257 -67.47)"/><path class="c" d="M199.889,117.476l-4.211,1.189,2.976,10.368,4.21-1.189-2.975-10.368" transform="translate(-45.815 -67.326)"/><path class="c" d="M214.35,122.3l-.289,7.36,22.194.87,3.675-7.228-25.58-1" transform="translate(-47.276 -67.71)"/><path class="c" d="M243.154,119.655l-1.747,3.435,1.861.073-.289,7.361-5.247-.206-5.085,10,6.555,3.361,10.506-20.666-6.554-3.36" transform="translate(-48.752 -67.5)"/><path class="f" d="M241.846,123.387l-3.675,7.228,5.247.206.289-7.361-1.861-.073" transform="translate(-49.191 -67.796)"/><path class="c" d="M221.764,135.74,219.623,158l7.333.7,2.141-22.26-7.333-.7" transform="translate(-47.717 -68.778)"/><path class="d" d="M279.268,148.509l-12.65.874-1.94,4.738-6.892-2.6.644-1.573-2.967.2.518,7.347,25.954-1.792-2.666-7.2" transform="translate(-50.565 -69.792)"/><path class="d" d="M269.886,120.368l-11.2,27.344,8.188-.565,9.9-24.18-6.892-2.6" transform="translate(-50.821 -67.556)"/><path class="e" d="M266.818,149.458l-8.188.565-.644,1.573,6.892,2.6,1.94-4.738" transform="translate(-50.765 -69.868)"/><path class="d" d="M285.853,139.311l-6.908,2.558,2.189,5.909,3.842-.265.518,7.347-1.693.117,1.723,4.652,6.908-2.559-6.578-17.759" transform="translate(-52.431 -69.061)"/><path class="e" d="M285.165,148.221l-3.842.265,2.666,7.2,1.693-.117-.518-7.347" transform="translate(-52.62 -69.769)"/><path class="c" d="M130.636,188.137h-8.079l-5.517,6.168-5.632-4.963,1.078-1.2h-2.221V195.5h20.371v-7.366" transform="translate(-39.028 -72.941)"/><path class="f" d="M122.656,188.137H112.585l-1.078,1.2,5.632,4.963,5.517-6.168" transform="translate(-39.127 -72.941)"/><path class="d" d="M149.3,192.668a2.758,2.758,0,1,1,2.758-2.757,2.76,2.76,0,0,1-2.758,2.757m0-12.881a10.124,10.124,0,1,0,10.123,10.124A10.135,10.135,0,0,0,149.3,179.787" transform="translate(-41.326 -72.277)"/><path class="c" d="M206.377,181.467a2.758,2.758,0,1,1,2.757-2.758,2.762,2.762,0,0,1-2.757,2.758m0-12.882A10.124,10.124,0,1,0,216.5,178.709a10.135,10.135,0,0,0-10.122-10.124" transform="translate(-45.861 -71.387)"/><path class="d" d="M60.933,83.444l-2.753,2.2,3.757,4.706,2.753-2.2-3.757-4.706" transform="translate(-34.89 -64.623)"/><path class="d" d="M162.6,74.864l-3.538,17.09,4.842.927,3.539-17.089-4.843-.928" transform="translate(-42.905 -63.941)"/><path class="d" d="M158.372,96.478l-.743,3.915,4.843.92.743-3.915-4.843-.92" transform="translate(-42.792 -65.658)"/><path class="c" d="M137.944,78.058,122.378,79.4l.38,4.915,6.923-.6a10.315,10.315,0,0,1,8.26-5.66l.072.76-.069-.762" transform="translate(-39.991 -64.195)"/><path class="c" d="M144.8,72.149l-3.322,1.167,2,5.692,3.323-1.167-2-5.692" transform="translate(-41.508 -63.725)"/><path class="c" d="M150.15,70.216l-3.323,1.167,2,5.692,3.322-1.167-2-5.692" transform="translate(-41.933 -63.571)"/><path class="d" d="M218.806,93.421l-6.728.232-2.527,10.14,3.688,3.973,9.143-1.569-2.059-6.215-3.293.565,1.776-7.126" transform="translate(-46.917 -65.415)"/><path class="e" d="M213.17,89.867l-.873,3.5,6.728-.232.425-1.707-6.28-1.565" transform="translate(-47.135 -65.133)"/><path class="d" d="M202.3,85l-5.559,1.768.558,1.765,3.732-.236.433,6.459-2.155.141.644,2.039,5.558-1.768L202.3,85" transform="translate(-45.899 -64.746)"/><path class="e" d="M201.075,88.585l-3.732.236,2.01,6.364,2.155-.141-.433-6.459" transform="translate(-45.947 -65.031)"/><path class="d" d="M104.524,75.623l-.735,4.88,5.771.608.51-4.9-5.546-.585M95.4,74.661l-.51,4.9,3.994.422.735-4.88L95.4,74.661" transform="translate(-37.807 -63.925)"/><path class="d" d="M98.276,85.332l-.483,3.214,4.878.708.136-.909a3.624,3.624,0,0,0-1.332.724l-3.2-3.737m.838-5.567-.835,5.551a8.477,8.477,0,0,1,5.293-2.055l.448-2.979-4.907-.517m1.186-7.878-.451,3,4.907.517.422-2.808-4.877-.708" transform="translate(-38.037 -63.704)"/><path class="e" d="M99.962,75.144l-.734,4.88,4.907.517.734-4.88-4.907-.517" transform="translate(-38.152 -63.963)"/><path class="d" d="M98.14,86.3l-.009.007.006.008,0-.016m5.509-2.057-.216,0-.765,5.083a3.626,3.626,0,0,1,1.515-.115l.012,0a3.623,3.623,0,0,1-.494,7.212,3.589,3.589,0,0,1-.494-.034h-.012a3.631,3.631,0,0,1-2.744-1.974l-4.408,2.2a8.555,8.555,0,0,0,6.471,4.651l.031,0a8.647,8.647,0,0,0,1.17.08,8.553,8.553,0,0,0,1.164-17.025,8.4,8.4,0,0,0-1.228-.09" transform="translate(-37.898 -64.686)"/><path class="e" d="M103.614,84.243A8.477,8.477,0,0,0,98.321,86.3l0,.016,3.2,3.737a3.624,3.624,0,0,1,1.332-.724l.765-5.083" transform="translate(-38.079 -64.686)"/><path class="c" d="M138.549,78.886l.375,4.148-8.707.752a10.317,10.317,0,0,0,9.208,14.929c.149,0,.3,0,.449-.01q.265-.012.535-.037a10.241,10.241,0,0,0,5.982-2.644l-3.323-3.643a5.339,5.339,0,0,1-3.12,1.378c-.174.017-.348.025-.52.025A5.388,5.388,0,0,1,134.08,88.9a5.392,5.392,0,0,1,4.858-5.868l-.389-4.147" transform="translate(-40.527 -64.26)"/><path class="f" d="M138.571,78.06a10.315,10.315,0,0,0-8.26,5.66l8.707-.752-.375-4.148-.072-.76" transform="translate(-40.621 -64.195)"/><path class="d" d="M225.942,96l-5.564,1.756.805,2.431,2.655-.455,1.095,6.38-1.691.29.533,1.609,5.563-1.756L225.942,96" transform="translate(-47.777 -65.62)"/><path class="e" d="M223.908,100.054l-2.655.455,2.059,6.215,1.691-.29-1.095-6.38" transform="translate(-47.847 -65.942)"/><path class="d" d="M72.768,72.024l-.422,4.911,9.168.787.423-4.911-9.168-.788" transform="translate(-36.016 -63.715)"/><path class="d" d="M75.882,81.582a9.686,9.686,0,0,0-6.9,3.145l3.612,3.355a4.7,4.7,0,0,1,3.3-1.57H75.9A3.789,3.789,0,0,1,79.8,90.277l0,.74a5.217,5.217,0,0,1-5.027,5.125l.324,4.919a10.1,10.1,0,0,0,9.634-10.028l0-.74a8.768,8.768,0,0,0-8.806-8.71h-.039" transform="translate(-35.748 -64.475)"/><path class="d" d="M42.722,96.166a1.667,1.667,0,0,1-.2-.013,1.838,1.838,0,0,1-1.807-1.634c-.139-2.131,1.557-3.152,3.366-3.636l.224,3.324a1.791,1.791,0,0,1-.5,1.512,1.559,1.559,0,0,1-1.079.447M48.417,81.54l-4.919.324.249,4.04c-5.254,1.077-8.248,4.36-7.953,8.918a6.815,6.815,0,0,0,6.049,6.213,6.341,6.341,0,0,0,.833.055,6.572,6.572,0,0,0,6.546-7.231L49,90.644a4.668,4.668,0,0,1,2.344,1.21,5.31,5.31,0,0,1,1.294,4.211l4.918.345a10.124,10.124,0,0,0-2.726-8.041A9.857,9.857,0,0,0,48.666,85.6l-.249-4.065m-.576-9.388-4.918.331.273,4.46,4.919-.324-.274-4.467" transform="translate(-33.11 -63.725)"/><path class="d" d="M43.283,77.294l-6.413.423.336,4.918,6.378-.421-.3-4.92m11.088-.731L48.2,76.97l.3,4.92,6.2-.41-.336-4.918" transform="translate(-33.197 -64.076)"/><path class="e" d="M48.755,77.005l-4.919.324.3,4.92,4.919-.324-.3-4.92" transform="translate(-33.75 -64.111)"/><path class="c" d="M189.212,192.734h-7.473l-4.38,4.96-5.629-4.96h-1.561V200.1h19.043v-7.366" transform="translate(-43.788 -73.306)"/><path class="c" d="M176.43,170.671a10.41,10.41,0,0,0-10.4,10.4h7.506a2.892,2.892,0,0,1,5.784,0,2,2,0,0,1-.476,1.476l-7.448,8.433,0,0h10.009l3.162-3.58.163-.2a9.469,9.469,0,0,0,2.092-6.134,10.41,10.41,0,0,0-10.4-10.4" transform="translate(-43.459 -71.553)"/><path class="f" d="M181.874,192.734H171.865l5.629,4.96,4.38-4.96" transform="translate(-43.923 -73.306)"/></g></g></svg>